<svg xmlns="http://www.w3.org/2000/svg" viewBox="0 0 247.42 46.32"><g id="bf2d368d-aef5-4129-92e3-4a52f8687416" data-name="$min800px $fontColor"><path d="M22.85,45.65l.35-2.73,5-.81,2-15.53H14.69l-2,15.53,4.61.81-.21,2.73H0l.3-2.73,3.78-.81,4.45-34L4.7,7.46l.35-2.91H22.14l-.32,2.91-4.7.68L15.18,22.86H30.7L32.65,8.14,28,7.46l.3-2.91H45.61l-.32,2.91-4.08.68-4.4,34,4.18.81-.29,2.73Z"/><path d="M43.5,43.68,45,35.33h5l.4,5.78c5,4.1,15.31.87,12.47-6.51-2.31-5.33-9.33-6.9-12.71-11.51C39.58,8.21,61.35-.5,72.91,6.09L71.51,14H66.86l-.81-5.27C61.51,5.12,53,8.89,55.83,15.17c3,6.44,12.35,7.76,14.85,14.8C75.68,45.6,54,49.69,43.5,43.68Z"/><path d="M99.78,45.65c-5.34-3.91-5.89-12.93-9.39-18.55l-5.08,5.15L84,42.11l4.59.81-.21,2.73H71.16l.35-2.73,3.94-.81,4.43-34-3.83-.68.35-2.91H93.49l-.32,2.91-4.7.68L86.09,26.39,102.84,8.14l-3.54-.7.29-2.89h13l-.35,2.91-3.3.68L96.06,21.29c3,5.3,6.49,13.14,9.44,18,1.3,2.83,3,2.92,5.38,3.54l-.35,2.78Z"/><path d="M114.88,42.06c-.33-5.57,9-7.25,8.8-1C124.05,46.67,114.67,48.38,114.88,42.06Z"/><path d="M129,45.92,123.5,8.17l-3.65-.71.35-2.91h16.1L136,7.49l-3.81.73c.5,4.44,2.88,26.12,3.38,30.06,1.09-3.67,8.88-22.39,10.47-26.33l-.35-3.78-4.07-.71.27-2.91h16.66l-.33,2.94-4.05.7c.41,4.43,2.78,26.12,2.65,30.09,1.31-3.65,10.87-26,12.58-30.11l-5.56-.68.27-2.94h15l-.29,2.91-4.08.71L157.47,45.92h-7.72l-2.6-25.74L136.68,45.92Z"/><path d="M177.42,42.27c.89-6.66,2-14.52,3.11-22.63L177.21,18l.46-2.35,10.2-1.41,1.46.65L185.8,39.76c-.47,3.18,1.95,2,3.45.68L190,42.3C187.78,46.14,177.37,48.79,177.42,42.27ZM186,9.22c-6.06-.28-4.8-9.58.92-9.21C193.3,0,191.91,9.8,186,9.22Z"/><path d="M220.36,45.65c-5.34-3.91-5.9-12.93-9.4-18.55l-5.07,5.15-1.27,9.86,4.59.81L209,45.65H191.74l.35-2.73,3.94-.81,4.43-34-3.84-.68L197,4.55h17.09l-.33,2.91-4.69.68-2.38,18.25L223.41,8.14l-3.54-.7.3-2.89h13l-.35,2.91-3.29.68L216.63,21.29c3.05,5.3,6.5,13.14,9.44,18,1.31,2.83,3.05,2.92,5.39,3.54l-.35,2.78Z"/><path d="M233.65,42.27c.89-6.66,2-14.52,3.1-22.63L233.43,18l.46-2.35,10.21-1.41,1.46.65L242,39.76c-.47,3.18,2,2,3.46.68l.78,1.86C244,46.14,233.59,48.79,233.65,42.27Zm8.53-33.05c-6.06-.28-4.8-9.58.92-9.21C249.52,0,248.14,9.8,242.18,9.22Z"/></g></svg>